# xmcd
#
# Track frame offsets:
#	150
#	15787
#	34964
#	54330
#	78578
#	101324
#	116158
#	136187
#	168449
#	200880
#	219839
#	241248
#
# Disc length: 3601 seconds
#
# Revision: 0
# Processed by: cddbd v1.5.2PL0 Copyright (c) Steve Scherf et al.
# Submitted via: EasyCDDAExtractor 8.2.3.1
#
DISCID=970e0f0c
DTITLE=Papa CHUBBY - Peace, Love and Respect
DYEAR=2003
DGENRE=Blues
TTITLE0=Top Ten Reasons Why I Can't Sleep At Night
TTITLE1=Life Is A Beatdown 
TTITLE2=Like The Budda
TTITLE3=UN-American Blues
TTITLE4=Young Men
TTITLE5=Keep On The Sunny Side Of Life
TTITLE6=The Man On the News
TTITLE7=I'm Not Afraid
TTITLE8=Sweet Release
TTITLE9=The Devil Gonna Drag You Down
TTITLE10=See You In Sete
TTITLE11=Midnight Ride/Peace
EXTD=
EXTT0=
EXTT1=
EXTT2=
EXTT3=
EXTT4=
EXTT5=
EXTT6=
EXTT7=
EXTT8=
EXTT9=
EXTT10=
EXTT11=
PLAYORDER=
